<?xml version="1.0" encoding="utf-8"?>
<!-- Generator: Adobe Illustrator 24.1.1, SVG Export Plug-In . SVG Version: 6.00 Build 0)  -->
<svg version="1.1" id="Layer_1" xmlns="http://www.w3.org/2000/svg" xmlns:xlink="http://www.w3.org/1999/xlink" x="0px" y="0px"
	 viewBox="0 0 163 62.1" style="enable-background:new 0 0 163 62.1;" xml:space="preserve">
<style type="text/css">
	.st0{fill:#FFFFFF;}
</style>
<desc>Created with Sketch.</desc>
<g>
	<g>
		<g>
			<polygon class="st0" points="128.2,20 128.6,20.5 129.2,20.2 133.2,20.6 133.5,20.7 138.1,17.3 138.3,16.1 137.1,16.1 
				133.2,19.1 129.4,18.8 126.9,16 126.8,11.1 126.1,10.4 125.4,11.1 125.2,16.9 125.6,17.2 			"/>
			<polygon class="st0" points="143.7,32.5 138.9,31.4 136.6,28.4 137.2,24.5 141.2,21.4 141.3,20.5 140.4,20.4 135.7,23.8 
				135.8,24.3 135.3,28.3 135,28.7 135.4,29.1 137.5,32.4 137.7,32.8 143.3,34.2 143.5,34.2 144.2,33.5 			"/>
			<polygon class="st0" points="136.7,36.5 136.4,36.7 133,38.7 132.3,38.7 132.3,39.4 131.2,43.2 131,43.5 133.3,48.8 134.1,49.2 
				134.4,49.1 134.7,48.2 132.5,43.6 133.8,40 137.1,38 142,39.3 142.8,38.7 142.3,37.7 			"/>
			<polygon class="st0" points="127.3,45.2 123.6,43.6 123.2,43.1 122.7,43.4 119,44.7 118.7,44.9 116,50 116.1,51 117.1,50.6 
				119.6,46.3 123.1,44.9 126.6,46.5 128.7,51.1 129.3,51.5 129.5,51.4 130,50.5 127.7,45.2 			"/>
			<polygon class="st0" points="114.3,39.3 114.2,38.7 113.6,38.5 110.2,36.5 109.9,36.2 104.3,37.3 103.8,38.3 104.6,38.9 
				109.5,38 112.8,39.8 113.7,43.4 111.5,47.9 111.9,49 112.2,49.1 112.9,48.6 115.4,43.4 115.3,43.1 			"/>
			<polygon class="st0" points="109,32.3 111.2,29.1 111.6,28.7 111.4,28.3 110.9,24.3 111.1,23.9 106.7,20.1 105.6,20.3 
				105.6,21.3 109.6,24.5 110,28.3 107.8,31.5 102.9,32.5 102.3,33.3 103,33.8 103.1,33.8 108.9,32.8 			"/>
			<polygon class="st0" points="113.2,20.6 113.5,20.4 117.5,20.3 118.1,20.5 118.3,19.9 121.1,17.1 121.5,16.9 121.7,11.1 
				120.9,10.3 120.1,11.1 119.9,16 117.3,18.7 113.6,18.9 109.7,15.8 108.7,15.9 108.7,16.9 			"/>
			<polygon class="st0" points="138.5,41.5 137.6,41.5 137,40.8 136.5,41.5 135.6,41.5 135.9,42.3 135.3,43 136.1,43.4 136.2,44.3 
				137,43.9 137.8,44.3 138,43.4 138.8,43 138.2,42.3 			"/>
			<polygon class="st0" points="141.1,26.4 140.6,25.6 140.1,26.3 139.2,26.3 139.4,27.2 138.8,27.9 139.6,28.2 139.8,29.2 
				140.6,28.7 141.4,29.1 141.6,28.2 142.4,27.9 141.8,27.2 142,26.3 			"/>
			<polygon class="st0" points="130.6,15.5 130.7,16.4 131.5,15.9 132.4,16.4 132.5,15.5 133.3,15.1 132.8,14.4 133,13.6 
				132.1,13.6 131.5,12.9 131,13.6 130.1,13.6 130.3,14.4 129.8,15.1 			"/>
			<polygon class="st0" points="114.2,15.2 114.4,16.1 115.2,15.6 116,16.1 116.1,15.2 117,14.8 116.3,14.1 116.6,13.3 115.7,13.3 
				115.2,12.6 114.6,13.3 113.7,13.3 113.9,14.1 113.4,14.8 			"/>
			<polygon class="st0" points="105.2,28.2 105.3,29.2 106.1,28.7 106.9,29.1 107.1,28.3 107.9,27.9 107.3,27.2 107.6,26.3 
				106.6,26.4 106.1,25.7 105.6,26.3 104.7,26.3 104.9,27.2 104.3,27.9 			"/>
			<polygon class="st0" points="111.1,41.4 110.1,41.4 109.6,40.7 109.1,41.4 108.1,41.4 108.4,42.2 107.8,42.9 108.7,43.3 
				108.8,44.2 109.6,43.7 110.4,44.2 110.6,43.3 111.4,42.9 110.8,42.2 			"/>
			<polygon class="st0" points="124.7,48.3 123.8,48.3 123.2,47.6 122.7,48.4 121.8,48.4 122.1,49.2 121.4,49.9 122.3,50.3 
				122.4,51.1 123.2,50.7 124.1,51.2 124.2,50.3 125.1,49.9 124.4,49.2 			"/>
		</g>
		<g>
			<g>
				<path class="st0" d="M127.1,30.5l0.6-2.2l0-0.5l-0.5-0.1l-2.3,0l-1.3-1.9l-0.9,0.1l-1.4,1.8l-2.3-0.2l-0.5,0.2l-0.1,0.5l0.7,2.2
					l-1.6,1.6l-0.1,0.6L118,33l2,1l0.5,2.2l0.3,0.4l0.5-0.1l2-1l2,1l0.2,0l0.2,0l0.3-0.3l0.3-2.3l2.2-0.8l0.3-0.5l-0.1-0.5
					L127.1,30.5z M125.7,33.1l-0.3,0.4l-0.4,1.7l-1.6-0.7l-0.5-0.1l-1.5,0.8l-0.4-1.7l-0.3-0.4l-1.6-0.7l1.2-1.3l0.1-0.6l-0.6-1.7
					l1.8,0.2l0.5-0.3l1-1.5l1,1.5l0.5,0.2l1.7,0l-0.4,1.7l0,0.5l1.2,1.4L125.7,33.1z"/>
				<path class="st0" d="M150.7,29l-2.8,2l-2.3,3.3l-1.1,1.6l-7.1-2.1l-3.4-4.8l0.9-6.2l5.8-4.4l2.6,1.9l5.6,1.1l2.8-3.7l-0.4-1.2
					l-0.7,1.1l-2.2,3.2l-7.3-3.5l-1.5-7.6l3.3-1.4l0.5-0.8L143,6.5l-4.9,1.3l0.2,6.6l0.7,2.6l0.9,0.4l-5.7,4.4l-6.3,0l-3.5-4.9
					l-0.2-7.3l7.9-4.5l-1.8-4.4l-0.6,0.2l0,0.4l0.2,3.9l-6.6,3.6l-7.6-3.6l1.4-3.8L117,0.9l-0.8-0.3l-2,4.6l7.8,4.7l0.8,7.2l-4.4,4
					l-5.8,0.7l-5.9-4.5l0.1-1.2l1.2-2.9l0.5-5.4l-4.7-1.7l-0.5,1.1l0.7,1.1l3.5,0.9l-2,7.7l-7.3,3.9l-2.2-3.4L95.6,17l-1.3,0.6
					l3.2,4l6.2-1.2l2.4-2.3l5.7,4.7l0.4,5.9l-3.1,5l-7.2,1.5l-0.7-0.6l-1-3.2l-4.5-3.3l-3.9,3.1l-0.2,1.4l1.8-0.4l2.7-2.5l4.9,6.5
					l-1.6,8.3l-3.7-1.1l-0.8,0.7l0,0.5l2.9,1.5l1.7-0.5l2.6-9l7.3-1.2l5.5,2.4l1.2,6l-3.1,6.7l-9.1,0.6l-0.4,4.8l0.7,0.1l0.1,0
					l1-0.6l-0.4-3.8h8.6l4.4,6.3l-2.1,3.2l-0.4,0.5l0.5,0.4l0.1-0.4l3.2-3.1l-0.1-2.6l-4.6-4.7l2.9-6.8l5.9-1.7l5.1,2.1l3.1,6.6
					l-0.1,0.7l-2.7,2.3l-1.6,4.2l3.3,3.1l0.1,0.1l0.6-0.1l-0.3-0.8l-2.9-2.6l5.7-5.8l8.2-0.8l0,3.9l0.5,0.7l0.2,0.7l0.8-1l-0.5-4.9
					l-8.9-0.8L130,44l1.5-6.1l5.6-2.5l7.2,1.5l2.6,8.8l1.7,0.7l3.2-0.9l-0.2-1.1l-0.7-0.5l-3.6,0.1l-1.2-7.4l4.4-6.1l3.1,1.7
					l1.4,0.5l0.4-1.7L150.7,29z M130.6,37.1l-1.6,6.2l-5.6-2.2l-5.9,2.3l-1.5-5.9l-5.3-3.3l2.7-5l0.2-5.6l5.4-0.9l4.2-4.4l4,4.7
					l6.1,0.3l-0.9,5.7l3.2,5.3L130.6,37.1z"/>
				<polygon class="st0" points="126.5,1.8 127.2,1.1 126.5,0.3 120.1,0.4 119.3,1.1 120.1,1.8 				"/>
				<polygon class="st0" points="148.9,15.8 149.3,15.7 149.4,14.6 145.5,9.7 144.5,9.5 144.3,10.5 148.3,15.5 				"/>
				<polygon class="st0" points="152.6,34.8 151,40.9 151.6,41.9 151.7,41.8 152.6,41.3 154,35.1 153.4,34.2 				"/>
				<polygon class="st0" points="132.9,58.9 132.6,59.9 133.3,60.3 133.6,60.3 139.3,57.6 139.7,56.7 138.7,56.3 				"/>
				<polygon class="st0" points="107.8,56.2 106.8,56.6 107.1,57.6 112.8,60.4 113.1,60.5 113.8,60.1 113.5,59.1 				"/>
				<polygon class="st0" points="94.1,34.9 93.2,34.3 92.6,35.2 93.9,41.4 94.6,42.1 94.7,42 95.4,41.1 				"/>
				<polygon class="st0" points="97.7,15.5 98.3,15.3 102.4,10.4 102.3,9.3 101.3,9.5 97.1,14.2 97.2,15.3 				"/>
			</g>
		</g>
	</g>
	<g>
		<g>
			<g>
				<path class="st0" d="M30.3,27.9c-0.1-0.1-0.3-0.2-0.4-0.3c-0.2-0.1-0.4-0.1-0.5-0.1c-0.2,0-0.4,0-0.5,0.1
					c-0.2,0.1-0.3,0.2-0.4,0.3c-0.1,0.1-0.2,0.3-0.3,0.4c-0.1,0.2-0.1,0.4-0.1,0.5c0,0.4,0.1,0.7,0.4,1c0.3,0.3,0.6,0.4,1,0.4
					c0.2,0,0.4,0,0.5-0.1c0.2-0.1,0.3-0.2,0.4-0.3c0.1-0.1,0.2-0.3,0.3-0.4c0.1-0.2,0.1-0.4,0.1-0.5c0-0.2,0-0.4-0.1-0.5
					C30.5,28.1,30.4,28,30.3,27.9z"/>
				<path class="st0" d="M34,27.9c-0.1-0.1-0.3-0.2-0.4-0.3c-0.2-0.1-0.4-0.1-0.5-0.1c-0.2,0-0.4,0-0.5,0.1
					c-0.2,0.1-0.3,0.2-0.4,0.3c-0.1,0.1-0.2,0.3-0.3,0.4c-0.1,0.2-0.1,0.4-0.1,0.5c0,0.4,0.1,0.7,0.4,1c0.3,0.3,0.6,0.4,1,0.4
					c0.2,0,0.4,0,0.5-0.1c0.2-0.1,0.3-0.2,0.4-0.3c0.1-0.1,0.2-0.3,0.3-0.4c0.1-0.2,0.1-0.4,0.1-0.5c0-0.2,0-0.4-0.1-0.5
					C34.2,28.1,34.1,28,34,27.9z"/>
				<path class="st0" d="M80,11.2c0.2,0,0.4,0,0.5-0.1c0.2-0.1,0.3-0.2,0.4-0.3c0.1-0.1,0.2-0.3,0.3-0.4c0.1-0.2,0.1-0.4,0.1-0.5
					c0-0.2,0-0.4-0.1-0.5c-0.1-0.2-0.2-0.3-0.3-0.4c-0.1-0.1-0.3-0.2-0.4-0.3c-0.2-0.1-0.4-0.1-0.5-0.1c-0.2,0-0.4,0-0.5,0.1
					c-0.2,0.1-0.3,0.2-0.4,0.3c-0.1,0.1-0.2,0.3-0.3,0.4c-0.1,0.2-0.1,0.4-0.1,0.5c0,0.4,0.1,0.7,0.4,1C79.2,11,79.6,11.2,80,11.2z"
					/>
				<path class="st0" d="M85,9.2c-0.1-0.2-0.2-0.3-0.3-0.4c-0.1-0.1-0.3-0.2-0.4-0.3c-0.2-0.1-0.4-0.1-0.5-0.1c-0.2,0-0.4,0-0.5,0.1
					c-0.2,0.1-0.3,0.2-0.4,0.3c-0.1,0.1-0.2,0.3-0.3,0.4c-0.1,0.2-0.1,0.4-0.1,0.5c0,0.4,0.1,0.7,0.4,1c0.3,0.3,0.6,0.4,1,0.4
					c0.2,0,0.4,0,0.5-0.1c0.2-0.1,0.3-0.2,0.4-0.3c0.1-0.1,0.2-0.3,0.3-0.4c0.1-0.2,0.1-0.4,0.1-0.5C85.1,9.6,85.1,9.4,85,9.2z"/>
				<path class="st0" d="M80.9,22.3h-5.4c-0.3,0-0.6-0.1-0.8-0.3c-0.2-0.2-0.4-0.5-0.5-0.9c-0.1-0.4-0.2-0.8-0.3-1.4
					c-0.1-0.5-0.2-1.1-0.3-1.6c-0.1-0.6-0.3-1.2-0.5-1.7c-0.2-0.5-0.5-1-0.9-1.3c-0.4-0.4-0.8-0.7-1.3-0.9c-0.5-0.2-1.1-0.3-1.8-0.3
					c-0.7,0-1.3,0.1-1.8,0.2c-0.5,0.1-1.1,0.3-1.6,0.4v2.1c0.2-0.1,0.3-0.1,0.6-0.2c0.2-0.1,0.5-0.1,0.7-0.2c0.3,0,0.5-0.1,0.7-0.1
					c0.2,0,0.5,0,0.7,0c0.7,0,1.2,0.1,1.6,0.4c0.4,0.2,0.7,0.6,1,1c0.2,0.4,0.4,0.9,0.5,1.4c0.1,0.5,0.2,1,0.3,1.5
					c0.1,0.6,0.2,1,0.3,1.3c0.1,0.3,0.3,0.6,0.5,0.7H60.3V20c0-0.9-0.1-1.8-0.3-2.6c-0.2-0.8-0.6-1.5-1-2.1c-0.5-0.6-1-1-1.8-1.4
					c-0.7-0.3-1.6-0.5-2.6-0.5c-0.8,0-1.6,0.1-2.3,0.4c-0.7,0.3-1.4,0.7-2,1.1c-0.6,0.5-1.2,1-1.7,1.6c-0.5,0.6-1,1.2-1.4,1.9
					c-0.4,0.6-0.7,1.3-1,1.9c-0.3,0.6-0.5,1.2-0.7,1.7c-0.7,0-1.3-0.1-1.9-0.2c-0.6-0.1-1.1-0.4-1.6-0.7V17h-2.4v3.8
					c0,0.5-0.1,0.9-0.2,1.1c-0.2,0.2-0.4,0.4-0.7,0.4h-2.9c0,0,0,0,0,0c0,0,0,0,0,0h-0.1c-0.7,0-1.4-0.1-1.9-0.2
					c-0.5-0.1-1-0.3-1.4-0.6v-7h-2.4v6.3c0,0.5-0.1,0.9-0.2,1.1c-0.2,0.2-0.4,0.4-0.7,0.4H19h0h-0.1c-0.8,0-1.6-0.1-2.1-0.3
					c-0.6-0.2-1.1-0.4-1.5-0.8V5.8h-2.4v16.5c0,0.9-0.1,1.7-0.4,2.4c-0.2,0.7-0.6,1.3-1.1,1.8c-0.5,0.5-1,0.9-1.7,1.1
					c-0.7,0.3-1.4,0.4-2.3,0.4c-0.8,0-1.5-0.1-2.1-0.4c-0.6-0.3-1.1-0.6-1.6-1c-0.4-0.4-0.7-1-1-1.6c-0.2-0.6-0.3-1.2-0.3-1.9
					c0-0.3,0-0.6,0.1-1c0-0.3,0.1-0.6,0.2-1c0.1-0.3,0.2-0.6,0.3-0.9c0.1-0.3,0.2-0.5,0.4-0.8l-2-1.1C1.2,18.6,1,19,0.9,19.4
					c-0.2,0.4-0.3,0.8-0.4,1.3C0.3,21,0.2,21.5,0.1,22C0,22.4,0,22.9,0,23.3c0,0.9,0.1,1.8,0.4,2.6c0.3,0.8,0.7,1.6,1.4,2.2
					c0.6,0.6,1.4,1.1,2.3,1.5c0.9,0.4,2,0.6,3.2,0.6c1.2,0,2.2-0.2,3.2-0.5c0.9-0.3,1.7-0.8,2.4-1.4c0.7-0.6,1.2-1.3,1.6-2.1
					c0.4-0.8,0.7-1.7,0.8-2.7c0.4,0.3,0.9,0.6,1.5,0.8c0.6,0.2,1.3,0.3,2.2,0.3H19h0h10.7c0.6,0,1-0.1,1.4-0.4
					c0.4-0.2,0.7-0.5,0.9-0.9c0.4,0.4,0.9,0.7,1.5,0.9c0.6,0.2,1.4,0.4,2.3,0.4h0.1c0,0,0,0,0,0c0,0,0,0,0,0h3.3
					c0.6,0,1.1-0.1,1.4-0.4c0.4-0.3,0.7-0.6,0.9-0.9c0.3,0.2,0.5,0.4,0.8,0.6c0.3,0.2,0.6,0.3,1,0.4c0.3,0.1,0.7,0.2,1,0.2
					c0.4,0,0.7,0.1,1.1,0.1h37.7V14.5h-2.4V22.3z M57.9,22.3H47.9c0.1-0.5,0.3-0.9,0.5-1.4c0.2-0.5,0.5-1,0.8-1.5
					c0.3-0.5,0.6-0.9,1-1.4c0.4-0.4,0.8-0.8,1.2-1.1c0.4-0.3,0.9-0.6,1.4-0.8c0.5-0.2,1-0.3,1.6-0.3c0.5,0,1,0.1,1.4,0.2
					c0.4,0.1,0.8,0.4,1.1,0.7c0.3,0.3,0.6,0.8,0.8,1.4c0.2,0.6,0.3,1.3,0.3,2.1V22.3z"/>
			</g>
			<g>
				<polygon class="st0" points="13.4,37.7 0,37.7 0,39.9 5.4,39.9 5.4,56.5 7.9,56.5 7.9,39.9 13.4,39.9 				"/>
				<path class="st0" d="M23.8,53.7v-5.3c0-1.7-0.4-3.1-1.2-4c-0.8-0.9-2.1-1.3-3.9-1.3c-0.8,0-1.6,0.1-2.3,0.3
					c-0.7,0.2-1.3,0.5-1.9,0.9l0.1,2c0.5-0.4,1.1-0.7,1.7-0.9c0.7-0.2,1.3-0.3,2-0.3c1.2,0,2,0.3,2.5,0.8c0.5,0.6,0.7,1.4,0.7,2.5
					c-0.2,0-0.5,0-0.7,0c-0.2,0-0.4,0-0.6,0h-1.2c-0.6,0-1.3,0.1-2,0.2c-0.7,0.1-1.3,0.4-1.9,0.7c-0.3,0.2-0.6,0.4-0.8,0.6
					c-0.3,0.2-0.5,0.5-0.7,0.7c-0.2,0.3-0.3,0.6-0.4,0.9C13,51.8,13,52.2,13,52.6c0,0.7,0.1,1.3,0.3,1.8c0.2,0.5,0.6,0.9,1,1.2
					c0.4,0.3,0.9,0.6,1.5,0.7c0.6,0.2,1.2,0.2,1.9,0.2c0.5,0,1-0.1,1.4-0.2c0.4-0.1,0.8-0.3,1.1-0.5c0.3-0.2,0.6-0.4,0.8-0.6
					c0.2-0.2,0.4-0.4,0.6-0.6h0v2h2.2c0-0.2-0.1-0.5-0.1-0.8C23.8,55.3,23.8,54.5,23.8,53.7z M21.4,51.3c0,0.9-0.3,1.7-0.9,2.4
					c-0.6,0.6-1.5,1-2.6,1c-0.3,0-0.5,0-0.8-0.1c-0.3-0.1-0.5-0.2-0.8-0.4c-0.2-0.2-0.4-0.4-0.6-0.6c-0.1-0.3-0.2-0.6-0.2-0.9
					c0-0.6,0.2-1,0.5-1.3c0.3-0.3,0.8-0.6,1.2-0.7c0.5-0.2,1-0.3,1.5-0.3c0.3,0,0.5,0,0.7,0c0.2,0,0.4,0,0.6,0c0.2,0,0.5,0,0.7,0
					c0.3,0,0.5,0,0.7,0V51.3z"/>
				<path class="st0" d="M34.3,43.5c-0.9,0-1.7,0.2-2.4,0.5c-0.7,0.4-1.3,0.9-1.7,1.6h0v-7.9h-2.4v18.8h2.4v-5.9
					c0-0.8,0.1-1.5,0.2-2.1c0.2-0.6,0.4-1.2,0.7-1.7c0.3-0.5,0.7-0.8,1.2-1.1c0.5-0.3,1.1-0.4,1.8-0.4c1,0.1,1.7,0.5,2.1,1.2
					c0.4,0.7,0.6,1.9,0.6,3.4v6.6h2.4v-7.6c0-1.7-0.4-3.1-1.2-4C37.1,43.9,35.9,43.5,34.3,43.5z"/>
				<path class="st0" d="M49.1,50.3c-0.3-0.3-0.6-0.5-0.9-0.7c-0.3-0.2-0.7-0.4-1-0.5c-0.3-0.2-0.7-0.3-1-0.5
					c-0.3-0.2-0.6-0.3-0.9-0.5c-0.3-0.2-0.5-0.4-0.6-0.6c-0.2-0.2-0.2-0.5-0.2-0.8c0-0.5,0.2-0.9,0.7-1.2c0.4-0.3,1-0.4,1.6-0.4
					c0.1,0,0.3,0,0.5,0.1c0.2,0,0.5,0.1,0.7,0.1c0.2,0.1,0.5,0.1,0.7,0.2c0.2,0.1,0.4,0.2,0.5,0.2l0.2-2.1c-0.5-0.1-0.9-0.2-1.4-0.3
					c-0.5-0.1-1-0.2-1.5-0.2c-0.6,0-1.2,0.1-1.8,0.2c-0.6,0.2-1,0.4-1.4,0.7c-0.4,0.3-0.7,0.7-0.9,1.2c-0.2,0.5-0.3,1.1-0.3,1.7
					c0,0.4,0.1,0.8,0.2,1.2c0.2,0.3,0.4,0.6,0.6,0.9c0.3,0.3,0.6,0.5,0.9,0.7c0.3,0.2,0.7,0.4,1,0.6c0.3,0.2,0.7,0.3,1,0.5
					c0.3,0.2,0.6,0.3,0.9,0.5c0.3,0.2,0.5,0.4,0.6,0.6c0.2,0.2,0.2,0.5,0.2,0.8c0,0.4-0.1,0.7-0.2,0.9c-0.2,0.2-0.3,0.4-0.6,0.6
					c-0.2,0.1-0.5,0.2-0.8,0.3c-0.3,0.1-0.6,0.1-0.8,0.1c-0.2,0-0.4,0-0.6-0.1c-0.2,0-0.5-0.1-0.8-0.2c-0.3-0.1-0.5-0.2-0.8-0.3
					c-0.3-0.1-0.5-0.2-0.8-0.4L42,55.8c0.5,0.3,1.1,0.5,1.7,0.6c0.6,0.1,1.2,0.1,1.8,0.1c0.6,0,1.1-0.1,1.7-0.2
					c0.5-0.2,1-0.4,1.4-0.7c0.4-0.3,0.8-0.7,1-1.2c0.3-0.5,0.4-1.1,0.4-1.8c0-0.5-0.1-1-0.2-1.3C49.6,50.9,49.3,50.5,49.1,50.3z"/>
				<path class="st0" d="M63.3,47.5c-0.2-0.9-0.5-1.6-0.9-2.3c-0.4-0.6-1-1.2-1.7-1.5c-0.7-0.4-1.6-0.6-2.7-0.6
					c-0.9,0-1.7,0.2-2.5,0.5c-0.7,0.3-1.4,0.8-1.9,1.3c-0.5,0.6-0.9,1.3-1.2,2.1c-0.3,0.8-0.4,1.7-0.4,2.6c0,1,0.1,2,0.4,2.8
					c0.3,0.9,0.7,1.6,1.2,2.2c0.5,0.6,1.2,1.1,2.1,1.4c0.8,0.3,1.8,0.5,2.9,0.5c0.5,0,1,0,1.4-0.1c0.4-0.1,0.8-0.1,1.1-0.2
					c0.3-0.1,0.6-0.2,0.9-0.3c0.2-0.1,0.5-0.2,0.7-0.3v-2.4c-0.1,0.1-0.4,0.3-0.6,0.4c-0.3,0.1-0.6,0.3-1,0.4
					c-0.4,0.1-0.7,0.2-1.1,0.3c-0.4,0.1-0.8,0.1-1.2,0.1c-0.6,0-1.1-0.1-1.6-0.3c-0.5-0.2-1-0.5-1.3-0.9c-0.4-0.4-0.7-0.8-0.9-1.3
					c-0.2-0.5-0.3-1.1-0.3-1.7h9.1C63.6,49.3,63.5,48.4,63.3,47.5z M54.5,48.6c0-0.4,0.1-0.8,0.3-1.2c0.1-0.4,0.4-0.8,0.6-1.1
					c0.3-0.3,0.6-0.6,1-0.8c0.4-0.2,0.9-0.3,1.5-0.3c0.5,0,1,0.1,1.4,0.3c0.4,0.2,0.7,0.4,1,0.8c0.3,0.3,0.5,0.7,0.6,1.1
					c0.1,0.4,0.2,0.9,0.2,1.4H54.5z"/>
				<path class="st0" d="M77.3,47.5c-0.2-0.9-0.5-1.6-0.9-2.3c-0.4-0.6-1-1.2-1.7-1.5c-0.7-0.4-1.6-0.6-2.7-0.6
					c-0.9,0-1.7,0.2-2.5,0.5c-0.7,0.3-1.4,0.8-1.9,1.3c-0.5,0.6-0.9,1.3-1.2,2.1c-0.3,0.8-0.4,1.7-0.4,2.6c0,1,0.1,2,0.4,2.8
					c0.3,0.9,0.7,1.6,1.2,2.2c0.5,0.6,1.2,1.1,2.1,1.4c0.8,0.3,1.8,0.5,2.9,0.5c0.5,0,1,0,1.4-0.1c0.4-0.1,0.8-0.1,1.1-0.2
					c0.3-0.1,0.6-0.2,0.9-0.3c0.2-0.1,0.5-0.2,0.7-0.3v-2.4c-0.1,0.1-0.4,0.3-0.6,0.4c-0.3,0.1-0.6,0.3-1,0.4
					c-0.4,0.1-0.7,0.2-1.1,0.3c-0.4,0.1-0.8,0.1-1.2,0.1c-0.6,0-1.1-0.1-1.6-0.3c-0.5-0.2-1-0.5-1.3-0.9c-0.4-0.4-0.7-0.8-0.9-1.3
					c-0.2-0.5-0.3-1.1-0.3-1.7h9.1C77.5,49.3,77.5,48.4,77.3,47.5z M68.4,48.6c0-0.4,0.1-0.8,0.3-1.2c0.1-0.4,0.4-0.8,0.6-1.1
					c0.3-0.3,0.6-0.6,1-0.8c0.4-0.2,0.9-0.3,1.5-0.3c0.5,0,1,0.1,1.4,0.3c0.4,0.2,0.7,0.4,1,0.8c0.3,0.3,0.5,0.7,0.6,1.1
					c0.1,0.4,0.2,0.9,0.2,1.4H68.4z"/>
				<rect x="80.9" y="37.7" class="st0" width="2.4" height="18.8"/>
			</g>
		</g>
	</g>
</g>
</svg>
